<?xml version="1.0" standalone="no"?>
<!DOCTYPE svg PUBLIC "-//W3C//DTD SVG 1.1//EN" "http://www.w3.org/Graphics/SVG/1.1/DTD/svg11.dtd">
<!--Generator: Xara Xtreme (www.xara.com), SVG filter version: 1.0.0.13-->
<svg stroke-width="0.501" stroke-linejoin="bevel" fill-rule="evenodd" xmlns:xlink="http://www.w3.org/1999/xlink" xmlns="http://www.w3.org/2000/svg" version="1.1" overflow="visible" width="600pt" height="450pt" viewBox="0 0 600 450">
 <defs>
  <marker id="DefaultArrow2" markerUnits="strokeWidth" viewBox="0 0 1 1" markerWidth="1" markerHeight="1" overflow="visible" orient="auto">
   <!-- REF_ARROW_STRAIGHT (-2) -->
   <g transform="scale(0.0092592592)">
    <!-- 1/108 -->
    <path d="M -9 54 L -9 -54 L 117 0 z"/>
   </g>
  </marker>
  <marker id="DefaultArrow3" markerUnits="strokeWidth" viewBox="0 0 1 1" markerWidth="1" markerHeight="1" overflow="visible" orient="auto">
   <!-- REF_ARROW_ANGLED -->
   <g transform="scale(0.0092592592)">
    <path d="M -27 54 L -9 0 L -27 -54 L 135 0 z"/>
   </g>
  </marker>
  <marker id="DefaultArrow4" markerUnits="strokeWidth" viewBox="0 0 1 1" markerWidth="1" markerHeight="1" overflow="visible" orient="auto">
   <!-- REF_ARROW_ROUNDED -->
   <g transform="scale(0.0092592592)">
    <path d="M -9,0 L -9,-45 C -9,-51.708 2.808,-56.580 9,-54 L 117,-9 C 120.916,-7.369 126.000,-4.242 126,0 C 126,4.242 120.916,7.369 117,9 L 9,54 C 2.808,56.580 -9,51.708 -9,45 z"/>
   </g>
  </marker>
  <marker id="DefaultArrow5" markerUnits="strokeWidth" viewBox="0 0 1 1" markerWidth="1" markerHeight="1" overflow="visible" orient="auto">
   <!-- REF_ARROW_SPOT -->
   <g transform="scale(0.0092592592)">
    <path d="M -54, 0 C -54,29.807 -29.807,54 0,54 C 29.807,54 54,29.807 54,0 C 54,-29.807 29.807,-54 0,-54 C -29.807,-54 -54,-29.807 -54,0 z"/>
   </g>
  </marker>
  <marker id="DefaultArrow6" markerUnits="strokeWidth" viewBox="0 0 1 1" markerWidth="1" markerHeight="1" overflow="visible" orient="auto">
   <!-- REF_ARROW_DIAMOND -->
   <g transform="scale(0.0092592592)">
    <path d="M -63,0 L 0,63 L 63,0 L 0,-63 z"/>
   </g>
  </marker>
  <marker id="DefaultArrow7" markerUnits="strokeWidth" viewBox="0 0 1 1" markerWidth="1" markerHeight="1" overflow="visible" orient="auto">
   <!-- REF_ARROW_FEATHER -->
   <g transform="scale(0.0092592592)">
    <path d="M 18,-54 L 108,-54 L 63,0 L 108,54 L 18, 54 L -36,0 z"/>
   </g>
  </marker>
  <marker id="DefaultArrow8" markerUnits="strokeWidth" viewBox="0 0 1 1" markerWidth="1" markerHeight="1" overflow="visible" orient="auto">
   <!-- REF_ARROW_FEATHER2 -->
   <g transform="scale(0.0092592592)">
    <path d="M -36,0 L 18,-54 L 54,-54 L 18,-18 L 27,-18 L 63,-54 L 99,-54 L 63,-18 L 72,-18 L 108,-54 L 144,-54 L 90,0 L 144,54 L 108,54 L 72,18 L 63,18 L 99,54 L 63,54 L 27,18 L 18,18 L 54,54 L 18,54 z"/>
   </g>
  </marker>
  <marker id="DefaultArrow9" markerUnits="strokeWidth" viewBox="0 0 1 1" markerWidth="1" markerHeight="1" overflow="visible" orient="auto">
   <!-- REF_ARROW_HOLLOWDIAMOND -->
   <g transform="scale(0.0092592592)">
    <path d="M 0,45 L -45,0 L 0, -45 L 45, 0 z M 0, 63 L-63, 0 L 0, -63 L 63, 0 z"/>
   </g>
  </marker>
  <filter id="StainedFilter">
   <feBlend mode="multiply" in2="BackgroundImage" in="SourceGraphic" result="blend"/>
   <feComposite in="blend" in2="SourceAlpha" operator="in" result="comp"/>
  </filter>
  <filter id="BleachFilter">
   <feBlend mode="screen" in2="BackgroundImage" in="SourceGraphic" result="blend"/>
   <feComposite in="blend" in2="SourceAlpha" operator="in" result="comp"/>
  </filter>
  <filter id="InvertTransparencyBitmapFilter">
   <feComponentTransfer>
    <feFuncR type="gamma" amplitude="1.055" exponent=".416666666" offset="-0.055"/>
    <feFuncG type="gamma" amplitude="1.055" exponent=".416666666" offset="-0.055"/>
    <feFuncB type="gamma" amplitude="1.055" exponent=".416666666" offset="-0.055"/>
   </feComponentTransfer>
   <feComponentTransfer>
    <feFuncR type="linear" slope="-1" intercept="1"/>
    <feFuncG type="linear" slope="-1" intercept="1"/>
    <feFuncB type="linear" slope="-1" intercept="1"/>
    <feFuncA type="linear" slope="1" intercept="0"/>
   </feComponentTransfer>
   <feComponentTransfer>
    <feFuncR type="gamma" amplitude="1" exponent="2.4" offset="0"/>
    <feFuncG type="gamma" amplitude="1" exponent="2.4" offset="0"/>
    <feFuncB type="gamma" amplitude="1" exponent="2.4" offset="0"/>
   </feComponentTransfer>
  </filter>
 </defs>
 <g id="Document" fill="none" stroke="black" font-family="Times New Roman" font-size="16" transform="scale(1 -1)">
  <g id="Spread" transform="translate(0 -450)">
   <g id="Layer 1">
    <path d="M 488.648,271.41 L 478.042,282.016 L 491.781,295.94 C 494.689,298.887 499.441,298.919 502.387,296.011 C 505.334,293.103 505.366,288.351 502.458,285.405 L 488.648,271.41 Z" fill-rule="evenodd" stroke="none" stroke-width="0.5" fill="#999999" marker-start="none" marker-end="none" stroke-miterlimit="79.8403193612775"/>
    <path d="M 475.652,238.937 L 466.129,248.588 L 456.709,239.041 L 446.102,249.648 L 455.593,259.266 L 446.347,268.636 L 456.953,279.242 L 466.129,269.943 L 475.408,279.346 L 486.014,268.74 L 476.665,259.266 L 486.258,249.543 L 475.652,238.937 Z" fill-rule="evenodd" stroke="none" stroke-width="0.5" fill="#772525" marker-start="none" marker-end="none" stroke-miterlimit="79.8403193612775"/>
    <path d="M 242.094,223.864 L 227.183,247.548 L 238.061,258.426 L 248.504,241.838 L 269.61,274.71 L 280.466,263.854 L 254.753,223.807 C 251.79,219.193 245.016,219.223 242.094,223.864 Z" fill-rule="evenodd" stroke="none" stroke-width="0.5" fill="#416717" marker-start="none" marker-end="none" stroke-miterlimit="79.8403193612775"/>
    <path d="M 491.781,222.592 L 478.286,236.267 L 488.892,246.873 L 502.458,233.127 C 505.366,230.181 505.334,225.429 502.387,222.521 C 499.441,219.613 494.689,219.645 491.781,222.592 Z" fill-rule="evenodd" stroke="none" stroke-width="0.5" fill="#999999" marker-start="none" marker-end="none" stroke-miterlimit="79.8403193612775"/>
    <path d="M 429.872,222.521 C 426.925,225.429 426.893,230.181 429.801,233.127 L 443.468,246.978 L 454.075,236.371 L 440.478,222.592 C 437.57,219.645 432.818,219.613 429.872,222.521 Z" fill-rule="evenodd" stroke="none" stroke-width="0.5" fill="#999999" marker-start="none" marker-end="none" stroke-miterlimit="79.8403193612775"/>
    <path d="M 278.345,243.61 C 278.194,255.732 286.439,267.048 300.774,267.048 L 342.399,267.048 L 342.399,268.735 C 342.399,275.527 341.189,278.711 339.836,280.273 C 338.708,281.577 336.21,283.173 329.461,283.173 L 292.871,283.173 L 282.541,267.084 L 271.685,277.94 L 282.462,294.725 C 283.842,296.873 286.22,298.173 288.774,298.173 L 329.461,298.173 C 338.25,298.173 345.971,296.104 351.177,290.091 C 356.158,284.337 357.399,276.552 357.399,268.735 L 357.399,235.36 L 367.058,235.36 L 367.058,268.901 C 367.058,276.99 368.961,284.582 374.144,290.165 C 379.423,295.85 386.901,298.173 395.274,298.173 L 435.14,298.173 C 437.146,298.173 439.069,297.368 440.478,295.94 L 454.319,281.912 L 443.713,271.306 L 432.004,283.173 L 395.274,283.173 C 389.58,283.173 386.7,281.643 385.137,279.959 C 383.479,278.173 382.058,274.879 382.058,268.901 L 382.058,227.86 C 382.058,223.72 378.697,220.36 374.558,220.36 L 300.774,220.36 C 286.64,220.36 278.493,231.754 278.345,243.61 Z M 342.399,235.36 L 342.399,252.048 L 300.774,252.048 C 294.906,252.048 293.299,247.364 293.344,243.797 C 293.392,239.934 295.405,235.36 300.774,235.36 L 342.399,235.36 Z" fill-rule="evenodd" stroke="none" stroke-width="0.5" fill="#999999" marker-start="none" marker-end="none" stroke-miterlimit="79.8403193612775"/>
    <path d="M 140.537,227.86 C 140.537,231.999 143.897,235.36 148.037,235.36 L 194.836,235.36 C 200.284,235.36 202.218,240.039 202.265,243.797 C 202.308,247.241 200.792,252.048 194.836,252.048 L 160.149,252.048 C 153.326,252.048 148.048,255.418 144.754,260.088 C 141.618,264.533 140.296,270.028 140.297,275.112 C 140.299,280.197 141.624,285.689 144.759,290.133 C 148.062,294.815 153.313,298.173 160.149,298.173 L 208.899,298.173 C 211.476,298.173 213.873,296.849 215.246,294.668 L 236.011,261.681 L 225.133,250.803 L 204.756,283.173 L 160.149,283.173 C 158.745,283.173 157.84,282.654 157.016,281.485 C 156.033,280.093 155.298,277.805 155.297,275.108 C 155.296,272.411 156.031,270.124 157.011,268.734 C 157.822,267.584 158.747,267.048 160.149,267.048 L 194.836,267.048 C 209.201,267.048 217.416,255.768 217.264,243.61 C 217.115,231.703 208.918,220.36 194.836,220.36 L 148.037,220.36 C 143.897,220.36 140.537,223.72 140.537,227.86 Z" fill-rule="evenodd" stroke="none" stroke-width="0.5" fill="#999999" marker-start="none" marker-end="none" stroke-miterlimit="79.8403193612775"/>
   </g>
  </g>
 </g>
</svg>
